Coordinates
version=1
nRows=19
nColumns=34
inDegrees=yes

Units are S.I. units (second, meters, Newtons, ...)
If the header above contains a line with 'inDegrees', this indicates whether rotational values are in degrees (yes) or radians (no).

endheader
time	pelvis_tilt	pelvis_list	pelvis_rotation	pelvis_tx	pelvis_ty	pelvis_tz	hip_flexion_r	hip_adduction_r	hip_rotation_r	knee_angle_r	ankle_angle_r	subtalar_angle_r	mtp_angle_r	hip_flexion_l	hip_adduction_l	hip_rotation_l	knee_angle_l	ankle_angle_l	subtalar_angle_l	mtp_angle_l	lumbar_extension	lumbar_bending	lumbar_rotation	arm_flex_r	arm_add_r	arm_rot_r	elbow_flex_r	pro_sup_r	arm_flex_l	arm_add_l	arm_rot_l	elbow_flex_l	pro_sup_l
      4.13333330	    -10.14964873	      0.19537693	      5.18361406	      1.77247626	      0.92739282	      0.01598698	      6.89547203	     -5.38836660	    -15.23702315	      6.78707981	    -11.69600913	     -7.36513595	      0.00000000	     12.17351682	     -6.73459982	    -11.38579976	      8.80133665	    -12.40820234	     10.18489074	      0.00000000	     -1.93306742	     -7.94458471	     14.45294216	    146.94391087	      0.84888030	     36.38318857	      9.23217625	     64.50083840	    127.27841354	      7.08272269	     18.77631746	     82.35206711	     72.96690576
      4.15000000	    -10.59823643	     -0.03041160	      5.30637195	      1.77691427	      0.92648667	      0.01840001	      6.97090550	     -5.02282262	    -15.51260882	      6.18891403	    -13.79781729	     -7.30859445	      0.00000000	     11.82426154	     -6.82895750	    -10.19479445	      7.19146556	    -14.39711599	      8.54782105	      0.00000000	     -0.90428832	     -8.82992695	     14.62874745	    149.81396759	      1.23171697	     39.25007289	      9.64249970	     63.86397343	    131.27101081	      9.99923659	     18.84265653	     78.85794966	     73.80748799
      4.16666670	    -10.99230321	     -0.29225343	      5.45241557	      1.78198462	      0.92411544	      0.02113830	      7.06707805	     -4.61342363	    -15.56985931	      5.89347557	    -15.32198304	     -7.53889447	      0.00000000	     11.50762867	     -7.05132184	     -9.00652812	      5.79288199	    -16.03399042	      7.13337266	      0.00000000	     -0.03496760	     -9.36644410	     14.16377010	    152.81801627	      0.93996297	     43.35669209	     10.44497284	     63.64252226	    134.90087656	     12.24865849	     19.03616076	     76.73445735	     75.30222868
      4.18333330	    -11.45017090	     -0.49716361	      5.47757572	      1.78672642	      0.92564294	      0.02379140	      7.39352045	     -4.28888461	    -15.71158968	      5.96299749	    -16.31908375	     -7.41158524	      0.00000000	     11.28812700	     -7.24502725	     -7.78328347	      4.52642008	    -17.34023683	      5.99831452	      0.00000000	      0.81655007	     -9.69507430	     13.68925474	    155.63014743	     -0.01306695	     48.01579166	     12.16946964	     63.06963408	    137.76538792	     14.09118168	     19.62956330	     75.90371596	     78.37617812
      4.20000000	    -11.75683769	     -0.80814961	      5.44764062	      1.79098818	      0.92754325	      0.02602230	      7.41203309	     -3.67936832	    -15.76477349	      5.73461632	    -16.71438950	     -7.34860125	      0.00000000	     11.01386467	     -7.62948930	     -6.91809317	      3.43452147	    -18.69297981	      4.74005324	      0.00000000	      1.20155365	     -9.56693396	     13.34310611	    158.45535099	     -0.64601642	     48.17015079	     13.44576313	     62.80054077	    140.11251540	     15.32941253	     20.21629601	     76.68117799	     79.35665692
      4.21666670	    -11.93886424	     -1.05535470	      5.36264227	      1.79421738	      0.92929718	      0.02696858	      7.36421925	     -3.19007094	    -16.14658519	      5.58639002	    -17.22561600	     -7.17548894	      0.00000000	     10.67031371	     -7.93125922	     -6.04301566	      2.50098990	    -20.05165854	      3.53550318	      0.00000000	      1.35500969	     -9.45330204	     12.88102339	    160.66143808	     -1.66240359	     47.89789017	     15.10911153	     62.70360805	    141.69173482	     16.35968190	     21.63186772	     77.61839674	     80.53598529
      4.23333330	    -12.16314834	     -1.33880374	      5.32401154	      1.79768937	      0.92976340	      0.02691513	      7.23534768	     -2.71203720	    -16.58538058	      5.21110071	    -17.58631740	     -6.71570155	      0.00000000	     10.47653200	     -8.25845334	     -5.01053651	      1.84524122	    -21.05233715	      2.58939096	      0.00000000	      1.71558547	     -9.32142985	     11.71744519	    161.34271299	     -3.03279139	     45.33261865	     18.08962538	     63.13627500	    142.48185970	     17.00637300	     23.86679408	     78.05457991	     86.11864310
      4.25000000	    -12.03896510	     -1.62944126	      5.21783041	      1.80113231	      0.92983092	      0.02656837	      6.86027864	     -2.28932715	    -16.85376465	      5.12092576	    -17.80252742	     -6.41105535	      0.00000000	      9.98216405	     -8.62196593	     -4.25864125	      1.44738733	    -21.84669987	      1.64215435	      0.00000000	      1.57407096	     -8.80242560	     10.84991194	    161.85795202	     -3.88958091	     43.61231287	     20.49944141	     64.97384230	    142.15508724	     17.06746050	     25.24769845	     80.14489297	     90.05509881
      4.26666670	    -11.70301665	     -1.80446276	      5.07804645	      1.80440080	      0.92897592	      0.02649190	      6.12917426	     -1.95953514	    -16.58204658	      4.86932960	    -17.79585580	     -6.21246070	      0.00000000	      9.32947395	     -8.85439584	     -3.92664325	      1.33990658	    -21.87496146	      1.25644286	      0.00000000	      1.06994112	     -8.40981754	     10.73796307	    162.80153297	     -4.76544017	     43.40434100	     21.76904953	     65.35577625	    141.74595710	     17.36361482	     26.40327886	     81.48616656	     90.55643270
      4.28333330	    -11.60464722	     -2.01360304	      5.07617328	      1.80757605	      0.92604829	      0.02648654	      5.72187470	     -1.68544319	    -16.56793538	      4.88433922	    -17.43655393	     -5.88221903	      0.00000000	      8.99739002	     -9.03880197	     -3.37836304	      1.37806705	    -21.87388050	      0.31416624	      0.00000000	      1.03961386	     -8.09035336	      9.65852293	    162.06797343	     -6.17872067	     43.02848807	     25.72873015	     67.70608226	    141.42903144	     17.23520104	     28.38364512	     82.05773467	     92.74521190
      4.30000000	    -11.35197956	     -2.18200069	      5.01497136	      1.81062870	      0.92402347	      0.02636538	      5.16442432	     -1.47513793	    -16.43793503	      4.95293719	    -17.05924532	     -5.84736365	      0.00000000	      8.45262621	     -9.18726741	     -2.97182347	      1.50675461	    -21.23061024	     -0.49825948	      0.00000000	      0.75998485	     -7.93314674	      9.03024672	    161.67265844	     -7.49137661	     42.01044276	     28.43050243	     71.69128927	    141.24463247	     17.74483474	     29.76028772	     81.42701605	     95.70046333
      4.31666670	    -11.01725910	     -2.32973539	      4.97335399	      1.81374534	      0.92355736	      0.02607902	      4.37424053	     -1.23829867	    -16.11250048	      4.77763631	    -16.74008518	     -5.88339442	      0.00000000	      7.78594861	     -9.32565475	     -2.91790272	      1.62252226	    -20.51444361	     -0.91237505	      0.00000000	      0.52591156	     -7.53344647	      8.73055363	    161.37598054	     -7.67227488	     42.10807108	     28.87448335	     72.20750838	    139.87510573	     17.93704902	     30.20238817	     81.13638588	     96.00255893
      4.33333330	    -10.69065932	     -2.54186899	      4.87452037	      1.81643181	      0.92268200	      0.02542778	      3.77620426	     -0.98558644	    -15.58654800	      4.89906719	    -16.27575406	     -5.92906985	      0.00000000	      7.27272375	     -9.56231836	     -2.75842332	      2.02110614	    -19.65409322	     -1.34441214	      0.00000000	      0.14077451	     -7.03647501	      8.05674432	    160.85758844	     -7.65350328	     42.51517137	     29.95180453	     72.62860862	    138.68717563	     17.98347498	     30.40825765	     80.76048774	     96.20987224
      4.35000000	    -10.37258460	     -2.60750108	      4.94090630	      1.81933623	      0.92252442	      0.02363475	      2.95301261	     -0.90633542	    -15.36552383	      4.54455705	    -16.45883360	     -5.90818427	      0.00000000	      6.46230425	     -9.55639809	     -2.41257856	      1.73311928	    -19.28364062	     -1.57679204	      0.00000000	      0.05558159	     -6.73046042	      7.03288985	    158.95004283	     -8.99602390	     43.77193153	     34.80616960	     74.09121456	    136.10874521	     17.85021915	     30.33027081	     80.94694153	     96.91375491
      4.36666670	    -10.08209362	     -2.69586505	      4.76403019	      1.82188993	      0.92334801	      0.02177369	      2.41586819	     -0.87772158	    -14.74798471	      4.49293368	    -16.27313875	     -5.85821752	      0.00000000	      5.78997431	     -9.58054050	     -2.26233966	      1.74206992	    -18.49108968	     -1.92940759	      0.00000000	     -0.13348353	     -6.22781215	      6.36594618	    157.07909247	    -10.16164970	     44.37519669	     39.58063139	     75.45345737	    133.54131563	     17.72690535	     30.21775050	     81.52307732	     97.60347282
      4.38333330	    -10.08289282	     -2.80765265	      4.52296036	      1.82435846	      0.92531886	      0.01981481	      2.27276376	     -0.88119296	    -14.34504603	      4.39445466	    -16.10235083	     -5.72268531	      0.00000000	      5.50490028	     -9.54434198	     -2.56028485	      1.86400845	    -17.66067193	     -2.43218945	      0.00000000	     -0.02258479	     -5.85205408	      5.82946048	    154.38688694	    -12.25826999	     43.60151465	     46.33062353	     77.52468170	    130.45131731	     17.83649799	     30.68097703	     83.07983700	     98.75203191
      4.40000000	     -9.78356035	     -2.83979775	      4.30679966	      1.82734269	      0.92800048	      0.01782843	      1.73512344	     -0.92362188	    -14.05258314	      4.14384378	    -16.29649878	     -5.46227240	      0.00000000	      4.69281074	     -9.41087352	     -2.73514820	      1.65553948	    -17.20426037	     -2.62391950	      0.00000000	      0.15163527	     -5.72014443	      4.96492413	    149.54282149	    -14.40695971	     39.96270723	     53.66906525	     81.73544682	    126.78355676	     17.90411102	     32.07148036	     83.34176114	    100.97697982
      4.41666670	     -9.46474449	     -2.83970805	      4.06181430	      1.83014420	      0.92861778	      0.01589044	      1.24447662	     -0.99423994	    -13.81649436	      4.02146988	    -16.32051116	     -5.35506619	      0.00000000	      3.96224065	     -9.22459886	     -2.86400938	      1.67754883	    -16.63604037	     -2.91658643	      0.00000000	      0.03637800	     -5.23656875	      4.64568854	    145.64135507	    -16.14625587	     38.48468369	     60.09791868	     84.92636590	    123.03728017	     17.22524458	     33.23020957	     85.54187019	    102.23119290
      4.43333330	     -9.14910859	     -2.71657407	      3.79918316	      1.83266941	      0.92533087	      0.01511253	      0.80989097	     -1.15146896	    -13.78320138	      4.11257931	    -16.29213745	     -5.64254088	      0.00000000	      3.14312716	     -8.93729018	     -2.79726385	      1.54565786	    -16.24745861	     -3.28195138	      0.00000000	     -0.10519335	     -5.03713574	      4.41545978	    141.39647183	    -17.62510559	     36.26400720	     65.78577864	     88.35314907	    120.06846027	     16.75423096	     34.44122322	     86.05709233	    103.33322757
